<svg width="229" height="82" viewBox="0 0 229 82" fill="none" xmlns="http://www.w3.org/2000/svg">
<path d="M15.552 29.4H2.496C2.88 30.264 3.456 31.608 3.6 31.896C3.84 32.328 4.368 32.856 5.472 32.856H9.36C9.936 32.856 10.128 33.24 10.032 33.672L0.144 63H12.672C13.776 63 14.256 62.52 14.496 62.04L15.6 59.592H6.24C5.76 59.592 5.472 59.256 5.616 58.68L15.552 29.4ZM43.0373 63H39.2453L36.2213 39.864L33.1973 63H29.4053L34.4933 29.4H36.3653C37.8053 29.4 38.0453 30.312 38.1893 31.224L43.0373 63ZM69.4166 50.952C68.5526 51.336 67.2086 51.912 66.9206 52.056C66.4886 52.296 66.0086 52.824 66.0086 53.928V58.44C66.0086 59.496 65.1926 60.312 64.1366 60.312C63.1286 60.312 62.3126 59.496 62.3126 58.44V33.912C62.3126 32.904 63.1286 32.088 64.1366 32.088C65.1926 32.088 66.0086 32.904 66.0086 33.912V41.448L68.5046 40.296C68.9366 40.104 69.4166 39.576 69.4166 38.472V33.336C69.4166 31.032 67.5926 29.112 65.2886 29.064H63.1766C60.7766 29.064 58.8566 30.984 58.8566 33.336V59.064C58.8566 61.416 60.7766 63.336 63.1766 63.336H65.2886C67.5926 63.24 69.4166 61.368 69.4166 59.064V50.952ZM91.7179 47.976L96.3259 63H99.9259L94.1179 44.616L99.5419 29.496H95.9419L91.7179 41.64V29.4H89.4139C89.0299 29.448 88.3099 29.64 88.3099 30.696V63H91.7179V47.976Z" fill="#453F3C"/>
<path d="M146.552 29.4H133.496C133.88 30.264 134.456 31.608 134.6 31.896C134.84 32.328 135.368 32.856 136.472 32.856H140.36C140.936 32.856 141.128 33.24 141.032 33.672L131.144 63H143.672C144.776 63 145.256 62.52 145.496 62.04L146.6 59.592H137.24C136.76 59.592 136.472 59.256 136.616 58.68L146.552 29.4ZM167.749 59.592V47.928C167.749 47.496 168.133 47.112 168.565 47.112H170.005C171.109 47.112 171.589 46.632 171.829 46.2C171.973 45.912 172.549 44.52 172.933 43.656H167.749V33.672C167.749 33.192 168.085 32.856 168.565 32.856H171.349C172.453 32.856 172.981 32.328 173.173 31.896L174.325 29.4H165.349C164.773 29.4 164.341 29.832 164.293 30.36V63H171.973C173.077 63 173.605 62.52 173.845 62.088C173.989 61.8 174.565 60.456 174.949 59.592H167.749ZM197.491 63V49.032L201.619 29.4H199.075C198.979 29.4 198.115 29.448 197.971 30.552L195.763 43.272L193.555 30.552C193.411 29.448 192.547 29.4 192.451 29.4H189.907L194.035 49.032V61.992C194.083 62.568 194.515 63 195.043 63H197.491ZM228.873 29.4H225.417V58.44C225.417 59.448 224.601 60.264 223.593 60.264H223.065C222.057 60.264 221.289 59.448 221.289 58.44V29.4H218.841C218.313 29.4 217.881 29.832 217.833 30.36V59.064C217.833 61.416 219.753 63.192 222.105 63.192H224.745V63.144C227.001 63.096 228.873 61.368 228.873 59.064V29.4Z" fill="#453F3C"/>
<line x1="110.531" y1="63.8259" x2="123.531" y2="28.8259" stroke="#453F3C"/>
</svg>
