<svg width="18" height="18" viewBox="0 0 18 18" fill="none" xmlns="http://www.w3.org/2000/svg">
<path fill-rule="evenodd" clip-rule="evenodd" d="M1.64116 2.47421C1.65476 2.41981 1.65476 2.36542 1.68195 2.32462C2.47067 1.12795 3.59934 0.475221 4.99999 0.284841C5.23117 0.257644 5.47594 0.271243 5.70712 0.257645C6.08788 0.148856 6.46864 0.21685 6.8494 0.203251C7.32535 0.284843 7.25735 0.611208 7.16216 0.923974C7.08057 1.20954 6.86299 1.34553 6.55023 1.30473C6.19667 1.26394 5.9111 1.05996 5.55754 0.964768C5.62553 1.80788 4.86401 1.72629 4.42886 2.02545C3.89852 2.14784 3.35457 2.22943 3.137 2.84137C3.06901 2.93656 2.98741 3.00455 2.87862 3.03175C2.45707 2.86857 1.85874 3.09974 1.64116 2.47421Z" fill="#A494C2"/>
<path fill-rule="evenodd" clip-rule="evenodd" d="M17.7826 5.65629C17.8234 5.81947 17.837 5.98266 17.7962 6.15944C17.4155 6.73058 16.8987 6.68978 16.3412 6.4858C15.838 5.50671 15.9332 4.41882 15.7564 3.37174C16.0556 2.787 16.5859 2.67821 17.1707 2.66461C17.5242 3.22215 17.701 3.83409 17.701 4.50041C17.8098 4.88117 17.6602 5.27553 17.7826 5.65629Z" fill="#CBA5C6"/>
<path fill-rule="evenodd" clip-rule="evenodd" d="M16.3956 6.45858C16.6267 6.33619 16.8715 6.2954 17.1299 6.2954C17.3611 6.309 17.5922 6.2546 17.7962 6.14581C17.8098 6.2546 17.8234 6.34979 17.8234 6.45858C17.8234 7.56006 17.8234 8.67514 17.8234 9.77662C17.8234 9.88541 17.7962 9.9806 17.7962 10.0894C17.4563 9.967 17.1571 9.73583 16.7627 9.73583C16.4636 9.74942 16.2596 9.51825 16.1644 9.21908C16.11 8.29438 15.7972 7.34248 16.3956 6.45858Z" fill="#C08DBB"/>
<path fill-rule="evenodd" clip-rule="evenodd" d="M1.64115 2.47424C1.74994 2.61023 1.88592 2.67822 2.04911 2.61023C2.26668 2.52864 2.44346 2.55583 2.60664 2.73261C2.68823 2.8278 2.81062 2.8822 2.91941 2.96379C2.9466 2.99099 2.97381 3.03178 3.001 3.05898C2.90581 3.95648 2.87862 4.86759 2.42986 5.6971C1.45077 5.32994 1.43717 5.34353 1.26038 6.28183C1.20599 6.54021 1.31478 6.89377 0.879627 6.93456C0.811634 5.94187 0.838836 4.94918 1.02922 3.98368C1.138 3.43974 1.27399 2.9094 1.64115 2.47424Z" fill="#9585BA"/>
<path fill-rule="evenodd" clip-rule="evenodd" d="M12.9551 0.25765C13.6758 0.203256 14.3558 0.380037 15.0221 0.63841C15.0629 0.652008 15.1037 0.706403 15.1309 0.747198C14.9677 1.22315 15.0493 1.80788 14.5462 2.14785C14.0022 2.25664 13.5127 2.01186 12.9959 1.93027C12.5744 1.73989 12.0848 1.87588 11.6633 1.6583C11.5137 0.991972 11.7992 0.597615 12.7103 0.244053C12.7919 0.216856 12.8735 0.216855 12.9551 0.25765Z" fill="#B587B8"/>
<path fill-rule="evenodd" clip-rule="evenodd" d="M5.93828 17.0518C4.97278 17.1198 4.08888 16.8751 3.24577 16.4399C2.81062 16.2087 2.40266 15.9232 2.13069 15.5016C2.08989 15.4472 2.0355 15.3792 1.98111 15.3248C2.0491 14.7809 2.32107 14.5361 2.86501 14.7809C3.10979 14.9033 3.36816 14.8353 3.61293 14.8897C3.68093 14.9169 3.73531 14.9713 3.77611 15.0257C3.81691 15.76 3.81691 15.76 4.67362 15.3248C4.78241 15.2976 4.89119 15.3112 4.99998 15.3384C5.40793 15.8552 5.97908 16.2903 5.93828 17.0518Z" fill="#EDD2B6"/>
<path fill-rule="evenodd" clip-rule="evenodd" d="M14.6277 2.0527C14.6277 1.94391 14.5869 1.82153 14.6277 1.75353C14.7229 1.60395 14.7365 1.48156 14.7093 1.30478C14.6685 1.01921 14.7909 0.883227 15.1309 0.733643C15.1853 0.747241 15.2397 0.733642 15.2805 0.760839C16.0964 1.1688 16.7219 1.76713 17.1435 2.56945C17.1571 2.59664 17.1435 2.62384 17.1571 2.65104C17.0755 2.71903 16.9803 2.75982 16.9123 2.84142C16.7219 3.0318 16.5043 3.14058 16.2324 3.14058C16.0964 3.14058 15.9876 3.20858 15.8924 3.30377C15.2669 3.11339 14.8725 2.66463 14.6277 2.0527Z" fill="#C699C1"/>
<path fill-rule="evenodd" clip-rule="evenodd" d="M3.69452 15.0257C3.43615 15.0529 3.20497 15.2161 2.9194 15.1753C2.79701 15.1617 2.74262 15.1073 2.68822 14.9985C2.60663 14.7945 2.53864 14.7945 2.44345 14.9441C2.38906 15.0393 2.33466 15.1209 2.23947 15.1617C2.14428 15.2025 2.0627 15.2705 1.98111 15.3249C1.62754 14.9985 1.40996 14.6041 1.31477 14.1282C1.31477 13.0403 1.64114 12.6731 2.47065 12.8091C2.933 13.5162 3.44974 14.1962 3.69452 15.0257Z" fill="#EFD1AD"/>
<path fill-rule="evenodd" clip-rule="evenodd" d="M10.0587 17.0791C9.52831 17.147 8.99797 17.1606 8.46762 17.0791C8.16846 16.7663 8.12766 16.4671 8.49482 16.1815C8.7396 16.0728 8.80759 15.7736 9.03876 15.6512C9.31073 15.5424 9.5827 15.5696 9.85468 15.624C10.2626 15.964 10.7522 15.7872 11.2009 15.8008C11.5001 15.8144 11.7721 15.828 11.9896 16.0456C12.3704 16.4127 12.2616 16.6983 11.7041 16.8615C11.1737 16.9839 10.5754 16.7663 10.0587 17.0791Z" fill="#F1CFAA"/>
<path fill-rule="evenodd" clip-rule="evenodd" d="M11.6497 16.7527C11.7449 16.7255 11.8537 16.6847 11.9489 16.6575C12.0712 16.6167 12.0984 16.5351 12.0304 16.4263C11.8809 16.1408 11.6769 15.9776 11.3369 16.032C11.0378 16.0864 10.725 15.9912 10.4122 16.0864C10.1946 16.1544 10.0179 16.0048 9.90907 15.8008C10.725 15.2432 13.7983 15.6104 14.4374 16.2767C14.5598 16.4127 14.723 16.5079 14.6686 16.7391L14.6142 16.7799L14.5462 16.7663C14.3966 16.8751 14.179 16.7663 14.0294 16.9023C13.8798 16.9431 13.7303 17.0111 13.5807 17.0247C12.9415 17.0791 12.2888 17.1334 11.6497 17.0655C11.5953 17.0247 11.5681 16.9703 11.5545 16.9023C11.5545 16.8479 11.5953 16.7935 11.6497 16.7527Z" fill="#EBC8AC"/>
<path fill-rule="evenodd" clip-rule="evenodd" d="M2.44345 12.9587C2.34826 12.9451 2.23947 12.9043 2.14428 12.9043C2.07628 12.9043 1.96749 12.9315 1.9403 12.9723C1.72272 13.353 1.42355 13.693 1.32836 14.1281C1.09719 13.6658 1.05639 13.4754 1.0156 12.8363C0.90681 12.4691 0.920407 12.102 0.9884 11.7484C1.08359 11.2045 1.35557 10.8237 1.9811 10.8373C2.13068 10.8509 2.26667 10.9053 2.38906 11.0141C2.74262 11.6532 3.00099 12.2923 2.44345 12.9587Z" fill="#DFC1A7"/>
<path fill-rule="evenodd" clip-rule="evenodd" d="M0.893222 6.92093C0.988412 6.82574 1.02921 6.71695 1.02921 6.58096C1.02921 6.43138 1.0292 6.2818 1.0428 6.13221C1.51875 6.2818 2.08989 5.76505 2.51144 6.32259C2.67463 7.05691 2.70182 7.77764 2.48424 8.51196C2.38905 8.67514 2.26667 8.75673 2.07629 8.71593C1.9675 8.68874 1.85872 8.64794 1.74993 8.59355C1.68194 8.56635 1.62754 8.52556 1.55955 8.48476C1.35557 8.32158 1.0564 8.26718 0.893222 8.03601C0.838828 7.66885 0.852426 7.30169 0.893222 6.92093Z" fill="#A797C4"/>
<path fill-rule="evenodd" clip-rule="evenodd" d="M17.7826 11.5172C17.837 11.8844 17.7962 12.2516 17.7554 12.6187C17.7418 12.6867 17.701 12.7683 17.6738 12.8363C17.361 12.7955 17.1571 13.0267 16.8987 13.1355C16.5723 13.2578 16.2596 13.353 16.042 12.9451C15.838 12.2516 15.9468 11.5852 16.2596 10.9325C16.8171 10.443 17.1979 10.8917 17.5922 11.2045C17.6738 11.2997 17.7418 11.3949 17.7826 11.5172Z" fill="#C9A1C3"/>
<path fill-rule="evenodd" clip-rule="evenodd" d="M8.6308 16.2767C8.50841 16.4263 8.34523 16.5487 8.45402 16.7935C8.49481 16.8751 8.46761 16.9838 8.46761 17.079C7.93727 17.147 7.40693 17.147 6.89019 17.0654C6.34624 16.8207 5.99269 16.4127 5.78871 15.8552C5.72071 15.6648 5.77511 15.556 5.92469 15.4744C6.50943 15.2704 7.09416 15.284 7.6789 15.4608C7.74689 15.488 7.81489 15.5424 7.86928 15.6104C7.92368 16.0456 8.46761 15.8552 8.6036 16.1815C8.6036 16.2087 8.6172 16.2495 8.6308 16.2767Z" fill="#F4D2A3"/>
<path fill-rule="evenodd" clip-rule="evenodd" d="M7.84207 15.8008C7.84207 15.76 7.84207 15.7192 7.84207 15.6648C8.14124 15.2569 8.57639 15.3249 8.99795 15.3249C10.725 15.2841 12.4656 15.4472 14.179 15.0801C15.1581 15.2569 15.1717 15.2841 14.9677 16.6167C14.8861 16.7391 14.7773 16.7663 14.6413 16.7391C14.4646 16.5895 14.2742 16.4399 14.0974 16.2903C14.0158 16.2224 13.907 16.1952 13.7982 16.2224C13.6079 16.2767 13.4311 16.2224 13.2679 16.1272C13.1727 16.0728 13.0775 16.032 12.9959 15.964C12.8191 15.828 12.6152 15.7872 12.4112 15.7872C11.5681 15.7872 10.725 15.7872 9.89545 15.7872C9.58268 15.7872 9.26991 15.7872 8.94355 15.7872C8.82116 15.9504 8.65798 15.9912 8.4676 15.9776C8.26362 15.9368 8.03245 15.9504 7.84207 15.8008Z" fill="#E4BFAA"/>
<path fill-rule="evenodd" clip-rule="evenodd" d="M16.2188 13.1083C16.4228 12.9995 16.6675 13.0539 16.8579 12.9043C17.0347 12.7683 17.2387 12.6459 17.3883 12.4691C17.4291 12.4283 17.5514 12.4691 17.5786 12.5371C17.6194 12.6323 17.6466 12.7275 17.6738 12.8227C17.6466 13.557 17.5242 13.9922 17.1843 14.5497C16.7219 14.5089 16.2596 14.9033 15.7972 14.5225C15.702 14.4409 15.6476 14.3321 15.6205 14.2233C15.6612 13.761 15.7428 13.3258 16.2188 13.1083Z" fill="#D0ADCA"/>
<path fill-rule="evenodd" clip-rule="evenodd" d="M0.893228 8.04962C0.961221 8.04962 1.04281 8.04962 1.1108 8.04962C1.35557 8.04962 1.54595 8.14481 1.66834 8.36239C1.62754 8.72955 1.91311 9.06951 1.72274 9.43667C1.68194 9.47747 1.65474 9.49107 1.65474 9.50466C1.68194 9.46387 1.72274 9.43667 1.79073 9.42307C2.15789 9.49107 2.36187 9.72224 2.49785 10.035C2.59304 10.4022 2.63384 10.7693 2.32107 11.0685C2.21229 11.0549 2.10349 11.0413 1.99471 11.0277C1.62755 10.7829 0.988418 10.9053 0.893228 10.2662C0.838834 9.53186 0.838834 8.78394 0.893228 8.04962Z" fill="#BEABC4"/>
<path fill-rule="evenodd" clip-rule="evenodd" d="M17.6602 11.3677C17.4426 11.3677 17.2251 11.3541 17.0891 11.1501C16.9123 10.8917 16.6539 10.8917 16.3819 10.8917C15.974 10.4158 15.9604 9.93982 16.3819 9.46387C16.7627 9.57265 17.1299 9.62705 17.497 9.43667C17.5242 9.42307 17.5922 9.47747 17.6058 9.51826C17.633 9.61345 17.6194 9.72224 17.6466 9.81743C17.6738 9.91262 17.7282 9.99421 17.769 10.0894C17.8234 10.4158 17.8234 10.7285 17.769 11.0549C17.7146 11.1501 17.769 11.2997 17.6602 11.3677Z" fill="#C799C2"/>
<path fill-rule="evenodd" clip-rule="evenodd" d="M15.7564 14.2505C15.8108 14.2913 15.8516 14.3321 15.906 14.3865C16.2052 14.8217 16.0556 15.3656 16.246 15.828C15.906 16.2359 15.4981 16.5079 14.9813 16.6167C14.8997 16.5487 14.8317 16.4671 14.7501 16.3991C14.5598 16.2359 14.5598 16.1407 14.7501 15.9504C14.8045 15.896 14.8725 15.8552 14.9269 15.8008C14.9949 15.7464 14.9813 15.6784 14.9133 15.5968C14.7909 15.4608 14.6685 15.3248 14.4646 15.3112C14.7229 14.7537 15.1309 14.3729 15.7564 14.2505Z" fill="#E4BDA1"/>
<path fill-rule="evenodd" clip-rule="evenodd" d="M16.246 15.828C16.178 15.8008 16.0964 15.7872 16.0284 15.76C15.906 15.7056 15.8108 15.5968 15.8244 15.4608C15.8516 15.284 15.8516 15.1072 15.8244 14.9305C15.7972 14.7537 15.8788 14.5769 15.906 14.4001C15.974 14.4273 16.042 14.4681 16.1236 14.4953C16.246 14.5361 16.382 14.5497 16.4908 14.4545C16.5315 14.4273 16.5723 14.3865 16.6131 14.3593C16.7219 14.2777 16.8443 14.2505 16.9803 14.2913C17.1299 14.3321 17.1571 14.4545 17.1979 14.5905C17.1979 14.6177 17.1979 14.6449 17.1979 14.6721C16.9667 15.1072 16.6811 15.5288 16.246 15.828Z" fill="#D4B6CD"/>
<path fill-rule="evenodd" clip-rule="evenodd" d="M5.78871 15.6512C5.89749 15.7872 6.06067 15.8008 6.21026 15.8416C6.38704 15.896 6.42784 16.0184 6.33265 16.2088C6.31905 16.2359 6.29185 16.2495 6.27825 16.2767C6.19666 16.4127 6.22386 16.4943 6.34624 16.5079C6.69981 16.5487 6.84939 16.7527 6.89018 17.0791C6.57742 17.1335 6.25105 17.1199 5.93829 17.0655C5.91109 16.8479 5.8023 16.6847 5.62552 16.5623C5.47594 16.4671 5.32635 16.3719 5.16317 16.2903C5.06798 16.2359 5.05439 16.1408 5.10878 16.032C5.12238 16.0048 5.13597 15.9912 5.14957 15.964C5.23116 15.7872 5.23116 15.7872 5.09518 15.6376C5.05438 15.5968 5.02718 15.5696 4.98639 15.5288C5.31275 15.2161 5.55753 15.3384 5.78871 15.6512Z" fill="#F2D3AE"/>
<path fill-rule="evenodd" clip-rule="evenodd" d="M12.9551 0.25764C12.8735 0.284837 12.7919 0.298436 12.6968 0.325633C12.0576 0.6248 11.3641 0.584004 10.6978 0.6248C10.1538 0.6248 9.60988 0.611203 9.07954 0.54321C8.57639 0.651998 8.05965 0.475217 7.55651 0.529611C7.35253 0.543209 7.18934 0.434422 7.05336 0.312035C6.60461 0.298437 6.16945 0.284838 5.7207 0.271239C5.96548 0.148852 6.23744 0.176049 6.49581 0.162451C7.10775 0.148852 7.70609 0.135254 8.31802 0.135254C9.55549 0.135254 10.793 0.135253 12.0304 0.148851C12.3296 0.16245 12.656 0.135253 12.9551 0.25764Z" fill="#9788B7"/>
<path fill-rule="evenodd" clip-rule="evenodd" d="M0.89324 10.2662C1.02923 10.4294 1.16521 10.5789 1.42358 10.5245C1.47797 10.5109 1.57316 10.5789 1.62756 10.6197C1.76354 10.7421 1.87233 10.8917 1.99472 11.0277C1.94032 11.0413 1.89953 11.0413 1.84514 11.0549C1.65476 11.0685 1.50517 11.1501 1.39638 11.3133C1.32839 11.422 1.26039 11.5308 1.1924 11.6396C1.09721 11.7756 1.05642 11.9116 1.05642 12.0748C1.04282 12.3332 1.04282 12.5915 1.02923 12.8499C1.00203 12.7547 0.947633 12.6595 0.934034 12.5507C0.866042 11.7892 0.838846 11.0277 0.89324 10.2662Z" fill="#CDB2AE"/>
<path fill-rule="evenodd" clip-rule="evenodd" d="M11.6497 16.7527C11.6497 16.8071 11.6497 16.8615 11.6497 16.9159C11.6089 16.9703 11.5545 17.0247 11.4865 17.0791C11.0105 17.147 10.5482 17.147 10.0723 17.0927C10.1674 16.8887 10.3306 16.7799 10.5618 16.7663C10.6842 16.7663 10.8202 16.7527 10.9426 16.7663C11.1601 16.7799 11.3369 16.7119 11.5273 16.6167C11.5953 16.5623 11.6225 16.6847 11.6497 16.7527Z" fill="#F2CB9B"/>
<path fill-rule="evenodd" clip-rule="evenodd" d="M17.7826 5.65624C17.701 5.54745 17.6602 5.42507 17.6602 5.28908C17.6602 5.03071 17.6738 4.77234 17.6874 4.50037C17.8506 4.88113 17.8098 5.26188 17.7826 5.65624Z" fill="#C08DBB"/>
<path fill-rule="evenodd" clip-rule="evenodd" d="M17.6602 11.3676C17.6738 11.2453 17.701 11.1365 17.7962 11.0685C17.837 11.2181 17.837 11.3677 17.7962 11.5308C17.7418 11.4764 17.701 11.422 17.6602 11.3676Z" fill="#C08DBB"/>
<path fill-rule="evenodd" clip-rule="evenodd" d="M14.0158 16.9023C14.1518 16.7391 14.3422 16.7527 14.5326 16.7663C14.383 16.9159 14.2062 16.9295 14.0158 16.9023Z" fill="#E4BFAA"/>
<path fill-rule="evenodd" clip-rule="evenodd" d="M1.98111 15.3248C2.0355 15.3792 2.0763 15.4336 2.13069 15.5016C2.0491 15.4744 1.99471 15.42 1.98111 15.3248Z" fill="#EFD1AD"/>
<path fill-rule="evenodd" clip-rule="evenodd" d="M11.4865 17.079C11.5409 17.0246 11.5953 16.9703 11.6497 16.9159C11.6497 16.9703 11.6497 17.0246 11.6497 17.079C11.5817 17.079 11.5273 17.079 11.4865 17.079Z" fill="#F1CFAA"/>
<path fill-rule="evenodd" clip-rule="evenodd" d="M7.03978 0.312061C7.20296 0.312061 7.37974 0.312061 7.54292 0.312061C8.05967 0.407251 8.59001 0.923996 9.10676 0.312061C9.43312 0.312061 9.75949 0.31206 10.0859 0.298462C10.2898 0.298462 10.4802 0.352857 10.6706 0.448047C11.1737 0.747215 11.0785 1.15517 10.8882 1.59032C10.6298 1.8351 10.3034 1.7807 10.0043 1.7943C8.83479 1.8215 7.65171 1.7671 6.48224 1.7943C6.14228 1.7943 5.80231 1.84869 5.48955 1.95748C5.19038 2.03907 4.87761 2.13427 4.55124 2.03908C4.46965 1.99828 4.40167 1.94389 4.36087 1.86229C4.53765 1.69911 4.75522 1.63112 4.9864 1.54953C5.10879 1.50873 5.21757 1.44074 5.32636 1.37275C5.40795 1.33195 5.42155 1.15517 5.35356 1.10077C5.25837 1.01918 5.14958 0.951193 5.05439 0.856003C5 0.801609 4.9592 0.733615 4.94561 0.665622C4.93201 0.638425 5 0.543235 5.0136 0.556833C5.43515 0.597629 5.81591 0.733615 6.18307 0.937593C6.34625 1.03278 6.50944 1.10078 6.68622 1.12797C6.79501 1.14157 6.8902 1.08718 6.94459 1.00559C7.05338 0.77441 7.05337 0.543236 7.03978 0.312061Z" fill="#9687BC"/>
<path fill-rule="evenodd" clip-rule="evenodd" d="M4.34724 1.84869C4.40164 1.86229 4.46963 1.86229 4.52402 1.87589C4.27925 2.48783 3.70811 2.66461 3.16417 2.86858C3.13697 2.85499 3.09618 2.82779 3.06898 2.81419C3.01459 2.7598 2.96019 2.7054 2.91939 2.63741C2.8922 2.59661 2.8922 2.51502 2.9058 2.50142C3.32735 2.14786 3.7625 1.8351 4.34724 1.84869Z" fill="#9585BA"/>
<path fill-rule="evenodd" clip-rule="evenodd" d="M2.9194 2.96373C2.9738 2.90934 3.0146 2.85494 3.06899 2.81415L3.09618 2.84134C3.12338 2.96373 3.06899 3.00453 2.9602 3.01813L2.9194 2.96373Z" fill="#9585BA"/>
<path fill-rule="evenodd" clip-rule="evenodd" d="M2.32107 5.72424C2.37546 5.87383 2.36186 6.00981 2.30746 6.1458C2.15788 6.22739 1.9947 6.30898 1.84512 6.39057C1.51875 6.56736 1.47796 6.56735 1.20599 6.30898C1.15159 6.25459 1.0972 6.20019 1.0428 6.1458C1.0428 5.98262 1.0428 5.83303 1.0564 5.66985C1.06999 5.60186 1.11079 5.49307 1.15159 5.47947C1.38276 5.41148 1.49155 5.2483 1.55954 5.04432C1.60034 4.93553 1.73632 4.92193 1.83151 4.98992C1.87231 5.01712 1.91311 5.05792 1.9675 5.07152C2.21227 5.2211 2.30747 5.43868 2.32107 5.72424Z" fill="#9F90C1"/>
<path fill-rule="evenodd" clip-rule="evenodd" d="M10.8474 1.39993C10.8202 1.15516 10.6842 0.923984 10.7522 0.652013C10.7658 0.597619 10.6978 0.516028 10.6706 0.448035C10.793 0.325648 10.929 0.284851 11.0922 0.284851C11.6361 0.29845 12.1664 0.312049 12.7104 0.325647C12.5744 0.448034 12.4248 0.556823 12.3296 0.706407C12.2072 0.883188 12.0712 1.03277 11.8945 1.14156C11.7449 1.22315 11.6905 1.37274 11.6497 1.52232C11.3369 1.6991 11.0649 1.7127 10.8474 1.39993Z" fill="#BBABCB"/>
<path fill-rule="evenodd" clip-rule="evenodd" d="M10.8474 1.3999C11.0921 1.52229 11.3505 1.56308 11.6361 1.52229C11.9624 1.53589 12.3024 1.54949 12.6288 1.56308C12.7784 1.56308 12.9279 1.59028 13.0503 1.69907C12.9143 1.69907 12.792 1.72627 12.656 1.71267C10.2898 1.65827 7.91007 1.64468 5.54393 1.72627C5.46234 1.72627 5.38075 1.71267 5.31276 1.71267C5.40795 1.67187 5.48954 1.60388 5.58473 1.57668C5.65272 1.54948 5.73431 1.56308 5.8159 1.56308C6.23745 1.56308 6.64541 1.54949 7.06697 1.54949C7.47492 1.3863 7.89648 1.56308 8.30444 1.56308C9.01156 1.54949 9.71869 1.56308 10.4122 1.56308C10.5754 1.54949 10.725 1.52229 10.8474 1.3999Z" fill="#9788B7"/>
<path fill-rule="evenodd" clip-rule="evenodd" d="M3.72172 15.0257C4.04809 15.1752 4.38805 15.2976 4.70082 15.4744C4.61923 15.5696 4.52403 15.6648 4.44244 15.76C4.33365 15.8824 4.19767 15.9504 4.03449 15.9232C3.80331 15.896 3.57214 15.8688 3.34096 15.828C3.32736 15.828 3.30017 15.7872 3.31376 15.76C3.32736 15.7056 3.34096 15.6648 3.36815 15.624C3.47694 15.4336 3.59933 15.2296 3.72172 15.0257Z" fill="#EFD1AD"/>
<path fill-rule="evenodd" clip-rule="evenodd" d="M8.48121 15.8144C8.64439 15.8144 8.79398 15.8144 8.95716 15.8144C8.97076 15.8552 8.99795 15.9096 9.01155 15.9504C9.07954 16.168 9.02515 16.2359 8.78038 16.2767C8.72598 16.2903 8.68518 16.2767 8.63079 16.2767C8.5084 16.1408 8.34522 16.032 8.48121 15.8144Z" fill="#F4D2A3"/>
<path fill-rule="evenodd" clip-rule="evenodd" d="M2.29388 8.68876C2.34827 9.11031 2.36187 9.53187 2.29388 9.95342C2.19869 9.88543 2.10349 9.80384 2.0083 9.73585C1.89952 9.65426 1.77713 9.55907 1.66834 9.47748C1.66834 9.32789 1.66835 9.16471 1.54596 9.05592C1.46437 8.97433 1.30119 8.91994 1.34198 8.77035C1.36918 8.67516 1.45077 8.60717 1.51876 8.52558C1.57315 8.47118 1.62755 8.41679 1.68194 8.3624C1.73634 8.3624 1.79073 8.37599 1.83152 8.37599C1.88592 8.43039 1.94031 8.47118 1.99471 8.52558C2.0899 8.56637 2.19869 8.63437 2.29388 8.68876Z" fill="#C5ABB2"/>
<path fill-rule="evenodd" clip-rule="evenodd" d="M1.98112 8.51198C1.92672 8.45758 1.87233 8.41679 1.81793 8.3624C1.87233 8.41679 1.92672 8.45758 1.98112 8.51198Z" fill="#BEABC4"/>
<path fill-rule="evenodd" clip-rule="evenodd" d="M8.48122 15.8144C8.53561 15.9776 8.59 16.1271 8.6308 16.2903C8.56281 16.2767 8.46762 16.2767 8.41322 16.2359C8.15485 16.0184 7.89648 16.0728 7.63811 16.2223C7.61091 16.2359 7.54292 16.1951 7.50212 16.1951C7.51572 16.1543 7.51572 16.0864 7.55652 16.0592C7.65171 15.9776 7.76049 15.896 7.85568 15.828C8.05966 15.8008 8.26364 15.8008 8.48122 15.8144Z" fill="#F1CFAA"/>
<path fill-rule="evenodd" clip-rule="evenodd" d="M1.66834 9.47745C1.69553 9.59983 1.72274 9.72222 1.74993 9.85821C1.76353 9.9126 1.74993 9.96699 1.69554 9.98059C1.65474 9.99419 1.58675 9.98059 1.54596 9.9534C1.35558 9.84461 1.26039 9.66783 1.1652 9.47745C1.1516 9.46385 1.1516 9.42305 1.1652 9.40945C1.20599 9.38226 1.26038 9.34146 1.28758 9.34146C1.42356 9.36866 1.54595 9.42305 1.66834 9.47745Z" fill="#CFB5B8"/>
<path fill-rule="evenodd" clip-rule="evenodd" d="M9.10675 0.298462C9.12035 0.516039 9.07956 0.720016 8.94357 0.896797C8.87558 0.978388 8.76679 1.03278 8.6716 0.991988C8.45402 0.896798 8.23645 0.801608 8.03248 0.679221C7.85569 0.570433 7.70611 0.420849 7.54292 0.298462C8.05967 0.298462 8.57641 0.298462 9.10675 0.298462Z" fill="#B1A1C9"/>
<path fill-rule="evenodd" clip-rule="evenodd" d="M5.46234 6.78492C5.48954 6.54015 5.63912 6.34977 5.77511 6.17299C6.67261 4.92192 7.91008 4.32358 9.44671 4.29639C9.5963 4.29639 9.75948 4.29639 9.89546 4.39158C10.1402 4.55476 10.249 4.81313 10.3986 5.05791C10.521 5.38427 10.4666 5.68344 10.2218 5.92821C10.113 6.0098 9.99066 6.0778 9.86827 6.0642C8.56281 5.96901 7.62451 6.59454 6.84939 7.56004C6.19666 7.70962 5.8159 7.49204 5.46234 6.78492Z" fill="#A292C1"/>
<path fill-rule="evenodd" clip-rule="evenodd" d="M12.4248 11.6668C11.8672 12.3196 11.1601 12.7139 10.3034 12.8499C9.93624 12.8907 9.58268 12.7955 9.22912 12.7003C9.20192 12.6867 9.16112 12.6595 9.13392 12.6459C9.07953 12.6051 9.02514 12.5371 8.98434 12.4827C8.91635 12.3468 8.91635 12.1972 8.98434 12.0612C8.97075 11.9932 9.18832 11.9932 9.03873 11.8708C8.99794 11.8028 8.98434 11.7484 8.98434 11.6668C8.99794 11.5444 9.05233 11.4629 9.14752 11.3949C9.86824 11.1637 10.5754 10.9053 11.2281 10.5382C11.9624 10.511 12.2888 10.7421 12.5608 11.5036L12.5472 11.5172C12.5336 11.5852 12.4928 11.626 12.4248 11.6668Z" fill="#C89DC1"/>
<path fill-rule="evenodd" clip-rule="evenodd" d="M13.5535 9.51823C13.5399 10.0486 13.3223 10.4837 13.0231 10.9053C12.3432 11.1637 12.0032 10.6877 11.6497 10.2662C11.6225 9.59982 11.8808 8.98789 12.0032 8.34876C12.0848 8.02239 12.2072 7.73682 12.6016 7.70963C12.9959 7.68243 13.2135 7.90001 13.4039 8.22637C13.6623 8.64793 13.6622 9.06948 13.5535 9.51823Z" fill="#C090BB"/>
<path fill-rule="evenodd" clip-rule="evenodd" d="M10.2082 5.87386C10.2218 5.75147 10.2218 5.61549 10.249 5.4931C10.2898 5.32992 10.2762 5.18033 10.2082 5.04435C10.1538 4.84037 10.045 4.63639 10.2218 4.43241C10.4666 4.37802 10.6706 4.51401 10.8882 4.5956C11.2689 4.73158 11.6497 4.90836 11.9352 5.20753C12.3024 5.86026 12.7376 6.51299 12.0848 7.24731C12.0304 7.28811 11.9624 7.3289 11.8809 7.3289C11.2825 6.89375 10.6162 6.52659 10.2082 5.87386Z" fill="#B38BBA"/>
<path fill-rule="evenodd" clip-rule="evenodd" d="M13.907 3.12697C14.4238 3.11337 14.8589 3.53492 14.8861 4.06527C14.9133 4.6364 14.4918 5.08516 13.9206 5.09876C13.2679 5.11235 12.8871 4.55481 12.9007 4.11966C12.9143 3.54852 13.3223 3.12697 13.907 3.12697Z" fill="#C69CC1"/>
<path fill-rule="evenodd" clip-rule="evenodd" d="M6.15586 11.5444C5.8295 11.2453 5.57113 10.9053 5.44874 10.4701C5.44874 10.3886 5.38075 10.3342 5.35355 10.2662C5.33995 10.2118 5.32636 10.1574 5.31276 10.103C5.42155 9.57264 5.8431 9.38226 6.27825 9.19188C6.40064 9.16469 6.50943 9.19188 6.61822 9.24628C7.02617 9.83102 7.58371 10.3342 7.77409 11.0549C7.7197 11.3133 7.52932 11.4628 7.33894 11.626C7.27094 11.6804 7.18935 11.7076 7.10776 11.7348C6.7542 11.7892 6.44143 11.762 6.15586 11.5444Z" fill="#BBABCB"/>
<path fill-rule="evenodd" clip-rule="evenodd" d="M6.53663 9.3007C6.44144 9.3007 6.34625 9.3143 6.25106 9.3143C5.8431 9.21911 5.42155 8.98794 5.12238 9.49108C5.09518 9.45029 5.05439 9.40949 5.05439 9.3551C4.9184 8.48479 5.01359 7.64168 5.42155 6.83937C5.43515 6.81217 5.46234 6.79857 5.47594 6.78497C5.57113 6.88016 5.67992 6.93456 5.8159 6.94816C6.03348 6.97535 6.16947 7.09774 6.26466 7.30172C6.37345 7.54649 6.40065 7.54649 6.67262 7.4513C6.69981 7.4377 6.71341 7.4377 6.74061 7.4241C6.99898 8.07683 6.91739 8.70237 6.53663 9.3007Z" fill="#9989BA"/>
<path fill-rule="evenodd" clip-rule="evenodd" d="M13.5535 9.51825C13.5399 9.28708 13.5399 9.0559 13.5127 8.82473C13.4991 8.71594 13.4583 8.62075 13.3495 8.57995C13.1319 8.48476 13.0775 8.29438 12.9959 8.09041C12.9415 7.94082 12.7512 7.87283 12.5336 7.92722C12.3976 7.95442 12.3024 8.04961 12.2888 8.1856C12.2616 8.30798 12.2616 8.44397 12.248 8.56636C11.6905 8.26719 11.6769 7.81844 11.908 7.30169C11.9352 7.27449 11.9488 7.2609 11.976 7.2337C12.316 6.94813 12.5336 6.48578 13.0639 6.48578C13.1863 6.55377 13.2135 6.68976 13.2679 6.79855C13.6215 7.54647 13.7438 8.33518 13.6623 9.15109C13.6623 9.28708 13.6487 9.40947 13.5535 9.51825Z" fill="#BA85B5"/>
<path fill-rule="evenodd" clip-rule="evenodd" d="M13.0775 6.48578C13.0503 6.55377 13.0231 6.66256 12.9687 6.68976C12.6832 6.81215 12.452 7.02972 12.2072 7.1929C12.1528 7.2337 12.0576 7.2201 11.9896 7.2337C12.0032 7.15211 11.9896 7.05692 12.0304 7.00253C12.248 6.70336 12.18 6.36339 12.1528 6.03703C12.1392 5.83305 12.0304 5.69707 11.7993 5.71067C11.7721 5.71067 11.7177 5.62907 11.7313 5.60188C11.7585 5.43869 11.84 5.31631 11.9624 5.20752C12.452 5.50669 12.8191 5.94184 13.0775 6.48578Z" fill="#C59CC1"/>
<path fill-rule="evenodd" clip-rule="evenodd" d="M5.12236 9.49106C5.13596 9.34148 5.14956 9.17829 5.14956 9.02871C5.16316 8.87913 5.21755 8.82473 5.39433 8.79754C5.88388 8.74314 5.91108 8.63435 6.14225 9.20549C6.15585 9.24629 6.21024 9.28708 6.23744 9.32788C6.19665 9.39587 6.15585 9.46386 6.10146 9.51826C5.82949 9.72224 5.55752 9.92621 5.28554 10.1166C5.12236 9.93981 5.13596 9.70864 5.12236 9.49106Z" fill="#AE9FC4"/>
<path fill-rule="evenodd" clip-rule="evenodd" d="M9.10674 11.9932C9.10674 12.1564 9.10674 12.3196 9.10674 12.4827C8.91636 12.8091 8.63079 12.9179 8.26363 12.8091C8.04605 12.8091 7.85567 12.7547 7.67889 12.6187C7.54291 12.4691 7.52931 12.306 7.6245 12.1156C8.07325 11.7892 8.5356 11.5308 9.10674 11.83C9.14753 11.8572 9.16113 11.898 9.14753 11.9252C9.13393 11.9796 9.12034 11.9932 9.10674 11.9932Z" fill="#E4CFC7"/>
<path fill-rule="evenodd" clip-rule="evenodd" d="M11.7721 10.2254C11.8128 10.2662 11.84 10.3206 11.8808 10.3342C12.2888 10.4701 12.588 10.8237 13.0367 10.8917C12.9551 11.1365 12.7919 11.3405 12.5744 11.5036C12.384 11.3676 12.1936 11.2181 12.0168 11.0821C11.9352 11.0141 11.8536 10.9461 11.8128 10.8509C11.7313 10.6333 11.5681 10.7149 11.4185 10.7285C11.3913 10.7285 11.3641 10.7285 11.3369 10.7421C11.2417 10.3614 11.4457 10.239 11.7721 10.2254Z" fill="#C99DAF"/>
<path fill-rule="evenodd" clip-rule="evenodd" d="M8.26364 12.8091C8.41323 12.7683 8.56281 12.7547 8.6852 12.6459C8.80759 12.5372 8.95717 12.51 9.10675 12.4828C9.14755 12.5372 9.20195 12.5507 9.25634 12.5236C9.6099 12.6323 9.96346 12.7411 10.317 12.8499C10.2762 12.8771 10.2218 12.9179 10.181 12.9179C9.6371 12.9995 9.09316 12.9995 8.54922 12.9315C8.45403 12.9179 8.35883 12.8499 8.26364 12.8091Z" fill="#E5B890"/>
<path fill-rule="evenodd" clip-rule="evenodd" d="M7.67891 12.1564C7.67891 12.306 7.67891 12.4691 7.67891 12.6187C7.29815 12.5235 6.97178 12.3467 6.69981 12.0476C6.61822 11.2045 7.23016 11.83 7.47493 11.6804C7.69251 11.7892 7.84209 11.9116 7.67891 12.1564Z" fill="#E3C5A2"/>
<path fill-rule="evenodd" clip-rule="evenodd" d="M7.35253 11.8436C7.25734 11.8844 7.17575 11.9116 7.08056 11.8708C6.80859 11.762 6.80859 11.762 6.7134 12.0612C6.46862 11.9524 6.27824 11.7892 6.15585 11.5444C6.50942 11.5444 6.86298 11.5444 7.23014 11.558C7.35253 11.6124 7.46132 11.6668 7.35253 11.8436Z" fill="#C9AB99"/>
<path fill-rule="evenodd" clip-rule="evenodd" d="M10.2218 4.41882C10.2354 4.6228 10.3442 4.82678 10.2082 5.03075C10.0586 4.96276 9.96344 4.86757 9.96344 4.67719C9.96344 4.582 9.90905 4.48681 9.88185 4.37802C10.0178 4.36443 10.113 4.37802 10.2218 4.41882Z" fill="#B9A9CC"/>
<path fill-rule="evenodd" clip-rule="evenodd" d="M5.33996 10.2662C5.36716 10.3342 5.40796 10.4022 5.43515 10.4702C5.36716 10.4294 5.32636 10.3614 5.33996 10.2662Z" fill="#AE9FC4"/>
<path fill-rule="evenodd" clip-rule="evenodd" d="M12.4248 11.6668C12.4656 11.6124 12.52 11.5716 12.5608 11.5172C12.5608 11.6124 12.52 11.6532 12.4248 11.6668Z" fill="#C99DAF"/>
<path fill-rule="evenodd" clip-rule="evenodd" d="M8.14124 11.2725C8.46761 11.3677 8.79398 11.4628 9.12034 11.558C9.12034 11.6532 9.10674 11.762 9.10674 11.8572C8.86196 11.9252 8.6036 11.9932 8.37242 12.0748C8.15484 12.1564 7.92367 12.17 7.69249 12.17C7.6653 11.9796 7.55651 11.8708 7.35253 11.8572C7.31174 11.762 7.25734 11.6668 7.21655 11.5716L7.20294 11.5444C7.48851 11.2997 7.77408 11.1501 8.14124 11.2725Z" fill="#DDC1B0"/>
<path fill-rule="evenodd" clip-rule="evenodd" d="M10.385 12.3875C10.3442 12.4147 10.3034 12.4555 10.2626 12.4555C9.97705 12.4827 9.78668 12.3332 9.66429 12.0748C9.65069 12.0612 9.66429 12.0204 9.66429 12.0068C9.67789 11.9796 9.70508 11.9524 9.71868 11.9524C9.97705 12.0068 10.2082 12.102 10.385 12.306C10.3986 12.3332 10.385 12.3603 10.385 12.3875Z" fill="#D3A7BA"/>
<path fill-rule="evenodd" clip-rule="evenodd" d="M9.10675 11.9932C9.10675 11.9388 9.10675 11.898 9.10675 11.8436C9.12035 11.8844 9.14755 11.9116 9.16115 11.9524C9.16115 11.966 9.12035 11.9796 9.10675 11.9932Z" fill="#DDC1B0"/>
<path fill-rule="evenodd" clip-rule="evenodd" d="M9.25634 12.5236C9.18835 12.5643 9.14755 12.5508 9.10675 12.4828C9.14755 12.4964 9.20195 12.51 9.25634 12.5236Z" fill="#E4CFC7"/>
<path fill-rule="evenodd" clip-rule="evenodd" d="M8.14124 11.2725C7.84208 11.3949 7.51571 11.4492 7.20294 11.5308C7.31173 11.3133 7.48851 11.1501 7.70609 11.0413C7.88287 11.0549 8.00526 11.1773 8.14124 11.2725Z" fill="#C7B8C9"/>
</svg>
